<svg width="66" height="80" viewBox="0 0 66 80" fill="none" xmlns="http://www.w3.org/2000/svg">
<path d="M25.1303 79.6409C24.578 79.6409 24.1303 79.1932 24.1303 78.6409V17.442C24.1303 16.8897 23.6826 16.442 23.1303 16.442H1C0.447715 16.442 0 15.9943 0 15.442V1.3591C0 0.806815 0.447715 0.3591 1 0.3591H64.7069C65.2592 0.3591 65.7069 0.806816 65.7069 1.3591V15.442C65.7069 15.9943 65.2592 16.442 64.7069 16.442H42.5766C42.0243 16.442 41.5766 16.8897 41.5766 17.442V78.6409C41.5766 79.1932 41.1289 79.6409 40.5766 79.6409H25.1303Z" fill="white"/>
</svg>
