<svg width="704" height="82" viewBox="0 0 704 82" fill="none" xmlns="http://www.w3.org/2000/svg">
<path d="M25.1303 80.6409C24.578 80.6409 24.1303 80.1932 24.1303 79.6409V18.442C24.1303 17.8897 23.6826 17.442 23.1303 17.442H1C0.447715 17.442 0 16.9943 0 16.442V2.35911C0 1.80683 0.447715 1.35911 1 1.35911H64.7069C65.2592 1.35911 65.7069 1.80683 65.7069 2.35911V16.442C65.7069 16.9943 65.2592 17.442 64.7069 17.442H42.5766C42.0243 17.442 41.5766 17.8897 41.5766 18.442V79.6409C41.5766 80.1932 41.1289 80.6409 40.5766 80.6409H25.1303Z" fill="white"/>
<path d="M96.4378 47.9088C95.8855 47.9088 95.4378 47.4611 95.4378 46.9088V34.4116C95.4378 33.8593 95.8855 33.4116 96.4378 33.4116H126.53C127.189 33.4116 127.668 32.7847 127.467 32.1574C125.952 27.4473 123.319 23.5992 119.568 20.6133C115.49 17.291 110.769 15.6298 105.407 15.6298C98.1729 15.6298 91.5276 18.1931 85.4713 23.3196C85.0342 23.6896 84.3747 23.6361 84.0164 23.1893L75.6251 12.7275C75.2983 12.3201 75.3398 11.7285 75.7273 11.3781C84.1154 3.79271 93.971 0 105.294 0C117.302 0 127.196 3.96409 134.975 11.8923C142.754 19.8204 146.644 29.523 146.644 41C146.644 52.5525 142.754 62.2928 134.975 70.221C127.272 78.0737 117.604 82 105.974 82C98.5721 82 92.2658 80.9052 87.0545 78.7155C82.1046 76.6356 77.5976 73.4998 73.5335 69.308C73.1691 68.9322 73.168 68.3379 73.5228 67.9533L82.9814 57.7007C83.3545 57.2963 83.9838 57.2702 84.3963 57.6344C87.6133 60.4753 90.7651 62.6321 93.8518 64.105C97.1749 65.6151 101.027 66.3702 105.407 66.3702C110.996 66.3702 115.792 64.6713 119.795 61.2735C123.56 58.0671 126.166 54.0242 127.614 49.1448C127.799 48.521 127.321 47.9088 126.671 47.9088H96.4378Z" fill="white"/>
<path d="M163.209 80.6409C162.657 80.6409 162.209 80.1932 162.209 79.6409V2.35911C162.209 1.80683 162.657 1.35911 163.209 1.35911H180.459C180.805 1.35911 181.126 1.53758 181.309 1.83108L201.011 33.5182C201.402 34.1475 202.318 34.1475 202.709 33.5182L222.412 1.83108C222.594 1.53758 222.915 1.35911 223.261 1.35911H240.511C241.063 1.35911 241.511 1.80683 241.511 2.35911V79.6409C241.511 80.1932 241.063 80.6409 240.511 80.6409H225.178C224.626 80.6409 224.178 80.1932 224.178 79.6409V32.2159C224.178 31.2237 222.889 30.8372 222.343 31.6656L201.985 62.5567C201.907 62.6748 201.775 62.7459 201.634 62.7459V62.7459C201.492 62.7459 201.36 62.6748 201.282 62.5567L181.151 32.0058C180.605 31.1773 179.316 31.5638 179.316 32.556V79.6409C179.316 80.1932 178.868 80.6409 178.316 80.6409H163.209Z" fill="white"/>
<path d="M283.879 80.6409C283.327 80.6409 282.879 80.1932 282.879 79.6409V49.6717C282.879 49.482 282.825 49.2961 282.724 49.1359L253.38 2.89492C252.957 2.22914 253.435 1.35911 254.224 1.35911H272.228C272.581 1.35911 272.907 1.54493 273.088 1.84813L290.864 31.7519C291.25 32.401 292.188 32.4046 292.579 31.7586L310.683 1.84139C310.864 1.54201 311.189 1.35911 311.538 1.35911H328.974C329.764 1.35911 330.242 2.232 329.817 2.89764L300.483 48.7952C300.38 48.956 300.326 49.1428 300.326 49.3337V79.6409C300.326 80.1932 299.878 80.6409 299.326 80.6409H283.879Z" fill="white"/>
<path d="M364.973 80.6409C364.421 80.6409 363.973 80.1932 363.973 79.6409V49.6717C363.973 49.482 363.919 49.2961 363.817 49.1359L334.473 2.89492C334.051 2.22914 334.529 1.35911 335.318 1.35911H353.322C353.674 1.35911 354.001 1.54493 354.181 1.84813L371.958 31.7519C372.343 32.401 373.282 32.4046 373.673 31.7586L391.777 1.84139C391.958 1.54202 392.282 1.35911 392.632 1.35911H410.068C410.858 1.35911 411.336 2.232 410.911 2.89764L381.577 48.7952C381.474 48.956 381.419 49.1428 381.419 49.3337V79.6409C381.419 80.1932 380.972 80.6409 380.419 80.6409H364.973Z" fill="white"/>
<path d="M485.284 79.6409C485.284 80.1932 484.836 80.6409 484.284 80.6409H468.951C468.399 80.6409 467.951 80.1932 467.951 79.6409V59.9678C467.951 59.7151 467.855 59.4717 467.683 59.2867L458.264 49.161C457.828 48.6927 457.071 48.7481 456.708 49.2747L435.395 80.2082C435.209 80.4791 434.901 80.6409 434.572 80.6409H416.17C415.361 80.6409 414.887 79.7315 415.35 79.0686L445.184 36.321C445.447 35.9429 445.419 35.4334 445.114 35.0875L416.85 3.02033C416.28 2.37452 416.739 1.35911 417.6 1.35911H435.658C435.949 1.35911 436.226 1.48626 436.416 1.70727L466.193 36.3493C466.797 37.0529 467.951 36.6252 467.951 35.6975V2.35911C467.951 1.80683 468.399 1.35911 468.951 1.35911H484.284C484.836 1.35911 485.284 1.80683 485.284 2.35911V35.6975C485.284 36.6252 486.438 37.0529 487.042 36.3493L516.818 1.70727C517.008 1.48625 517.285 1.35911 517.577 1.35911H535.635C536.496 1.35911 536.954 2.37452 536.385 3.02033L508.121 35.0875C507.816 35.4334 507.787 35.9429 508.051 36.321L537.885 79.0686C538.348 79.7315 537.873 80.6409 537.065 80.6409H518.661C518.333 80.6409 518.026 80.4799 517.839 80.2102L496.418 49.2762C496.053 48.7494 495.294 48.6968 494.86 49.1684L485.548 59.2875C485.378 59.4721 485.284 59.7138 485.284 59.9647V79.6409Z" fill="white"/>
<path d="M616.846 1.35911C617.399 1.35911 617.846 1.80683 617.846 2.35911V79.6409C617.846 80.1932 617.399 80.6409 616.846 80.6409H601.627C601.074 80.6409 600.627 80.1932 600.627 79.6409V31.9568C600.627 30.9674 599.344 30.5789 598.795 31.402L566.258 80.1957C566.072 80.4738 565.76 80.6409 565.426 80.6409H550.534C549.982 80.6409 549.534 80.1932 549.534 79.6409V2.35911C549.534 1.80683 549.982 1.35911 550.534 1.35911H565.754C566.306 1.35911 566.754 1.80683 566.754 2.35911V50.061C566.754 51.0488 568.033 51.4385 568.584 50.6183L601.349 1.80181C601.535 1.52512 601.846 1.35911 602.179 1.35911H616.846Z" fill="white"/>
<path d="M637.934 80.6409C637.381 80.6409 636.934 80.1932 636.934 79.6409V2.35911C636.934 1.80683 637.381 1.35911 637.934 1.35911H653.38C653.932 1.35911 654.38 1.80683 654.38 2.35911V31.732C654.38 32.2843 654.828 32.732 655.38 32.732H685.554C686.106 32.732 686.554 32.2843 686.554 31.732V2.35911C686.554 1.80683 687.001 1.35911 687.554 1.35911H703C703.552 1.35911 704 1.80683 704 2.35911V79.6409C704 80.1932 703.552 80.6409 703 80.6409H687.554C687.001 80.6409 686.554 80.1932 686.554 79.6409V49.8149C686.554 49.2626 686.106 48.8149 685.554 48.8149H655.38C654.828 48.8149 654.38 49.2626 654.38 49.8149V79.6409C654.38 80.1932 653.932 80.6409 653.38 80.6409H637.934Z" fill="white"/>
</svg>
